<svg width="21" height="21" viewBox="0 0 21 21" fill="none" xmlns="http://www.w3.org/2000/svg">
<path d="M19.4094 9.72606C20.2672 10.019 20.2672 11.232 19.4094 11.5249L13.5466 13.527C13.2681 13.6221 13.0494 13.8408 12.9543 14.1193L10.9522 19.9822C10.6593 20.8399 9.4462 20.8399 9.1533 19.9822L7.1512 14.1193C7.05611 13.8408 6.83739 13.6221 6.55891 13.527L0.69602 11.5249C-0.161694 11.232 -0.161694 10.019 0.696021 9.72606L6.55891 7.72396C6.83739 7.62886 7.05611 7.41014 7.1512 7.13167L9.1533 1.26877C9.4462 0.411059 10.6593 0.41106 10.9522 1.26877L12.9543 7.13167C13.0494 7.41014 13.2681 7.62886 13.5466 7.72396L19.4094 9.72606Z" fill="white"/>
</svg>
