<svg width="51" height="51" viewBox="0 0 51 51" fill="none" xmlns="http://www.w3.org/2000/svg">
<path d="M43.5228 20.9156L39.5385 14.0146C39.0739 13.2101 38.4016 12.5453 37.5919 12.09C36.7822 11.6346 35.865 11.4053 34.9362 11.4261C34.0075 11.447 33.1015 11.7172 32.313 12.2085C31.5246 12.6998 30.8828 13.394 30.4548 14.2185L26.6608 7.64716C26.1907 6.8319 25.5072 6.16022 24.6839 5.70432C23.8607 5.24842 22.9287 5.02556 21.9882 5.05971C21.0477 5.09385 20.1343 5.3837 19.3463 5.89809C18.5582 6.41248 17.9252 7.13196 17.5154 7.97916C16.6563 7.03276 15.4775 6.43746 14.2059 6.30774C12.9343 6.17802 11.6596 6.52306 10.6271 7.27648C9.59451 8.02991 8.87699 9.13851 8.6125 10.3891C8.34802 11.6396 8.55526 12.9438 9.19437 14.0508L10.9982 17.1751C10.07 17.1319 9.14721 17.3394 8.32681 17.7758C7.50642 18.2123 6.81866 18.8615 6.33575 19.6555C5.85284 20.4494 5.5926 21.3587 5.58235 22.2879C5.57209 23.2171 5.81221 24.1319 6.27749 24.9363L13.8478 38.0485C14.972 39.9984 16.4694 41.7078 18.2544 43.0789C20.0395 44.4499 22.0772 45.4558 24.2512 46.039C26.4251 46.6223 28.6927 46.7715 30.9243 46.478C33.1559 46.1846 35.3078 45.4543 37.2571 44.3289C39.2064 43.2035 40.9148 41.705 42.2847 39.9191C43.6547 38.1332 44.6593 36.0948 45.2412 33.9205C45.823 31.7462 45.9708 29.4785 45.6759 27.2471C45.3811 25.0157 44.6495 22.8642 43.5228 20.9156ZM42.9252 33.2976C42.1705 36.114 40.5977 38.6434 38.4055 40.5658C36.2133 42.4883 33.5003 43.7175 30.6095 44.0981C27.7188 44.4787 24.78 43.9935 22.165 42.7039C19.55 41.4143 17.3761 39.3782 15.9182 36.8531L8.34788 23.741C7.97898 23.1004 7.87943 22.3396 8.07111 21.6257C8.2628 20.9118 8.73003 20.3032 9.37017 19.9336C10.0103 19.564 10.771 19.4636 11.4851 19.6545C12.1992 19.8454 12.8083 20.312 13.1786 20.9517L16.7647 27.163C16.7895 27.2053 16.8168 27.246 16.8465 27.2849C16.8554 27.2967 16.8648 27.3079 16.874 27.3193C16.8963 27.3466 16.9195 27.3727 16.9437 27.3977C16.9538 27.4081 16.9636 27.4187 16.974 27.4287C17.0073 27.4609 17.0425 27.4912 17.0794 27.5194C17.0832 27.5222 17.0872 27.5245 17.091 27.5273C17.1248 27.5521 17.1598 27.575 17.196 27.596C17.2089 27.6035 17.2221 27.6104 17.2351 27.6174C17.2646 27.6332 17.2946 27.6477 17.3252 27.6609C17.338 27.6664 17.3507 27.6723 17.3637 27.6774C17.406 27.6942 17.4493 27.7086 17.4933 27.7205C17.4987 27.7219 17.5043 27.7227 17.5098 27.7241C17.5493 27.7339 17.5892 27.7417 17.6295 27.7475C17.6435 27.7495 17.6574 27.751 17.6714 27.7525C17.7061 27.7563 17.7408 27.7585 17.7758 27.7592C17.7842 27.7594 17.7926 27.7609 17.8011 27.7609C17.8051 27.7609 17.8092 27.7601 17.8133 27.7601C17.8595 27.7598 17.9057 27.7569 17.9515 27.7512C17.9552 27.7507 17.9589 27.7498 17.9627 27.7493C18.0051 27.7433 18.0471 27.7351 18.0886 27.7246C18.1019 27.7213 18.1151 27.7174 18.1282 27.7136C18.1619 27.7039 18.1954 27.6927 18.2285 27.6799C18.2413 27.6749 18.2542 27.6703 18.2668 27.6649C18.4227 27.5989 18.5627 27.5006 18.6777 27.3763C18.7927 27.2521 18.8799 27.1049 18.9336 26.9444C18.9874 26.7839 19.0064 26.6139 18.9894 26.4455C18.9724 26.2771 18.9198 26.1142 18.8351 25.9677L11.2648 12.8554C11.081 12.5381 10.9616 12.1878 10.9133 11.8244C10.8651 11.461 10.8889 11.0916 10.9835 10.7374C11.0782 10.3833 11.2417 10.0512 11.4648 9.76027C11.6878 9.46934 11.9661 9.22524 12.2835 9.04194C12.601 8.85864 12.9515 8.73973 13.315 8.69202C13.6785 8.6443 14.0478 8.66872 14.4019 8.76386C14.7559 8.85901 15.0877 9.02303 15.3783 9.24653C15.6689 9.47003 15.9126 9.74862 16.0954 10.0664L22.8689 21.7984C22.9474 21.9343 23.0518 22.0535 23.1764 22.1491C23.3009 22.2446 23.4431 22.3147 23.5947 22.3553C23.7463 22.396 23.9044 22.4063 24.0601 22.3859C24.2157 22.3654 24.3658 22.3144 24.5017 22.2359C24.6377 22.1575 24.7568 22.053 24.8524 21.9284C24.9479 21.8039 25.018 21.6618 25.0587 21.5101C25.0993 21.3585 25.1097 21.2004 25.0892 21.0447C25.0687 20.8891 25.0177 20.739 24.9393 20.6031L19.7596 11.6315C19.391 10.991 19.2917 10.2304 19.4835 9.51668C19.6753 8.803 20.1425 8.19461 20.7825 7.82511C21.4225 7.45561 22.183 7.35521 22.897 7.54596C23.6109 7.73671 24.22 8.20301 24.5904 8.84247L30.5665 19.1934L30.567 19.1943L31.9998 21.676C30.2362 23.0301 29.0247 24.9789 28.591 27.1597C28.1573 29.3404 28.5309 31.6045 29.6423 33.5303C29.7208 33.6663 29.8253 33.7854 29.9498 33.881C30.0743 33.9765 30.2165 34.0466 30.3681 34.0873C30.5197 34.1279 30.6779 34.1383 30.8335 34.1178C30.9891 34.0973 31.1392 34.0464 31.2751 33.9679C31.4111 33.8894 31.5302 33.7849 31.6258 33.6604C31.7214 33.5358 31.7915 33.3937 31.8321 33.2421C31.8727 33.0904 31.8831 32.9323 31.8626 32.7767C31.8421 32.621 31.7912 32.471 31.7127 32.335C31.2679 31.5647 30.9793 30.7143 30.8632 29.8324C30.7471 28.9505 30.8058 28.0544 31.0361 27.1952C31.2663 26.336 31.6635 25.5306 32.205 24.8249C32.7465 24.1192 33.4217 23.5271 34.192 23.0823C34.2597 23.0431 34.3235 22.9974 34.3823 22.9459L34.3837 22.9447C34.4419 22.8936 34.4949 22.8369 34.542 22.7755L34.5429 22.7744C34.5896 22.7135 34.6302 22.6482 34.6643 22.5795L34.6664 22.5756C34.7008 22.5058 34.7283 22.4328 34.7485 22.3577L34.749 22.3565C34.7519 22.3457 34.7535 22.3347 34.756 22.3238C34.7625 22.2969 34.769 22.27 34.7735 22.2426C34.7756 22.2304 34.7763 22.2181 34.7779 22.2059C34.7815 22.1794 34.7852 22.1529 34.787 22.1262C34.7877 22.1163 34.7873 22.1063 34.7877 22.0963C34.7889 22.0672 34.7899 22.0381 34.789 22.0088C34.7888 22.002 34.7878 21.9952 34.7875 21.9883C34.7859 21.9563 34.7838 21.9242 34.7796 21.8922C34.7789 21.8868 34.7775 21.8814 34.7768 21.8759C34.772 21.843 34.7664 21.8101 34.7589 21.7775C34.7573 21.7708 34.755 21.7643 34.7533 21.7576C34.7456 21.7267 34.7374 21.6958 34.727 21.6653C34.7227 21.6524 34.7169 21.64 34.7122 21.6272C34.7032 21.6034 34.6948 21.5795 34.6841 21.5561C34.6678 21.5198 34.6496 21.4843 34.6296 21.4495L32.6372 17.9985C32.2684 17.3579 32.169 16.5972 32.3608 15.8834C32.5526 15.1696 33.0199 14.5611 33.66 14.1916C34.3001 13.8221 35.0607 13.7218 35.7747 13.9127C36.4887 14.1037 37.0978 14.5702 37.468 15.2099L41.4524 22.1109C42.4254 23.7856 43.0566 25.6366 43.3094 27.5568C43.5622 29.477 43.4316 31.4282 42.9252 33.2976ZM17.1369 48.4942C17.0474 48.6232 16.9335 48.7334 16.8015 48.8183C16.6695 48.9033 16.522 48.9614 16.3675 48.9894C16.2131 49.0173 16.0546 49.0146 15.9012 48.9813C15.7478 48.948 15.6024 48.8848 15.4735 48.7954C12.6246 46.8235 10.2514 44.2412 8.52648 41.2364C8.36817 40.9619 8.32537 40.6357 8.40748 40.3296C8.48959 40.0235 8.68989 39.7626 8.96434 39.6041C9.2388 39.4457 9.56494 39.4027 9.87108 39.4846C10.1772 39.5666 10.4383 39.7667 10.5969 40.0411C12.1458 42.74 14.2772 45.0595 16.8357 46.8308C17.0962 47.0115 17.2742 47.2882 17.3307 47.6001C17.3872 47.9121 17.3175 48.2337 17.1369 48.4942ZM33.8664 6.17471C33.8666 5.85788 33.9927 5.55411 34.2168 5.33018C34.441 5.10624 34.7448 4.98046 35.0617 4.98047H35.0628C37.0899 4.98516 39.0803 5.52116 40.8356 6.53501C42.591 7.54887 44.0498 9.00517 45.0668 10.7587C45.1454 10.8946 45.1964 11.0447 45.217 11.2004C45.2375 11.3561 45.2272 11.5143 45.1866 11.666C45.146 11.8177 45.0759 11.9599 44.9803 12.0845C44.8847 12.209 44.7655 12.3136 44.6296 12.3921C44.4936 12.4706 44.3434 12.5216 44.1877 12.542C44.0321 12.5625 43.8739 12.5521 43.7222 12.5114C43.5705 12.4707 43.4284 12.4006 43.3038 12.3049C43.1793 12.2093 43.0748 12.09 42.9964 11.954C42.1896 10.5631 41.0323 9.408 39.6398 8.60387C38.2474 7.79975 36.6685 7.37469 35.0605 7.37109C34.7435 7.37079 34.4396 7.24457 34.2157 7.02021C33.9917 6.79585 33.8661 6.49171 33.8664 6.17471Z" fill="white"/>
</svg>
